<svg height="1710" width="720" xmlns="http://www.w3.org/2000/svg">
<rect height="1710" fill="#555" width="720"></rect>
<text fill="#7f7" font-family="Courier New" font-size="12" xml:space="preserve">
<tspan x="10" y="26">9 megabytes installed</tspan>
<tspan x="10" y="42"></tspan>
<tspan x="10" y="58">node_modules</tspan>
<tspan x="10" y="74">└─┬ gulp-inline-source@3.1.0 </tspan>
<tspan x="10" y="90">  ├─┬ gulp-util@3.0.8 </tspan>
<tspan x="10" y="106">  │ ├── array-differ@1.0.0 </tspan>
<tspan x="10" y="122">  │ ├── array-uniq@1.0.3 </tspan>
<tspan x="10" y="138">  │ ├── beeper@1.1.1 </tspan>
<tspan x="10" y="154">  │ ├─┬ chalk@1.1.3 </tspan>
<tspan x="10" y="170">  │ │ ├── ansi-styles@2.2.1 </tspan>
<tspan x="10" y="186">  │ │ ├── escape-string-regexp@1.0.5 </tspan>
<tspan x="10" y="202">  │ │ ├─┬ has-ansi@2.0.0 </tspan>
<tspan x="10" y="218">  │ │ │ └── ansi-regex@2.1.1 </tspan>
<tspan x="10" y="234">  │ │ ├── strip-ansi@3.0.1 </tspan>
<tspan x="10" y="250">  │ │ └── supports-color@2.0.0 </tspan>
<tspan x="10" y="266">  │ ├── dateformat@2.0.0 </tspan>
<tspan x="10" y="282">  │ ├─┬ fancy-log@1.3.0 </tspan>
<tspan x="10" y="298">  │ │ └── time-stamp@1.0.1 </tspan>
<tspan x="10" y="314">  │ ├─┬ gulplog@1.0.0 </tspan>
<tspan x="10" y="330">  │ │ └── glogg@1.0.0 </tspan>
<tspan x="10" y="346">  │ ├─┬ has-gulplog@0.1.0 </tspan>
<tspan x="10" y="362">  │ │ └── sparkles@1.0.0 </tspan>
<tspan x="10" y="378">  │ ├── lodash._reescape@3.0.0 </tspan>
<tspan x="10" y="394">  │ ├── lodash._reevaluate@3.0.0 </tspan>
<tspan x="10" y="410">  │ ├── lodash._reinterpolate@3.0.0 </tspan>
<tspan x="10" y="426">  │ ├─┬ lodash.template@3.6.2 </tspan>
<tspan x="10" y="442">  │ │ ├── lodash._basecopy@3.0.1 </tspan>
<tspan x="10" y="458">  │ │ ├── lodash._basetostring@3.0.1 </tspan>
<tspan x="10" y="474">  │ │ ├── lodash._basevalues@3.0.0 </tspan>
<tspan x="10" y="490">  │ │ ├── lodash._isiterateecall@3.0.9 </tspan>
<tspan x="10" y="506">  │ │ ├─┬ lodash.escape@3.2.0 </tspan>
<tspan x="10" y="522">  │ │ │ └── lodash._root@3.0.1 </tspan>
<tspan x="10" y="538">  │ │ ├─┬ lodash.keys@3.1.2 </tspan>
<tspan x="10" y="554">  │ │ │ ├── lodash._getnative@3.9.1 </tspan>
<tspan x="10" y="570">  │ │ │ ├── lodash.isarguments@3.1.0 </tspan>
<tspan x="10" y="586">  │ │ │ └── lodash.isarray@3.0.4 </tspan>
<tspan x="10" y="602">  │ │ ├── lodash.restparam@3.6.1 </tspan>
<tspan x="10" y="618">  │ │ └── lodash.templatesettings@3.1.1 </tspan>
<tspan x="10" y="634">  │ ├── minimist@1.2.0 </tspan>
<tspan x="10" y="650">  │ ├─┬ multipipe@0.1.2 </tspan>
<tspan x="10" y="666">  │ │ └─┬ duplexer2@0.0.2 </tspan>
<tspan x="10" y="682">  │ │   └─┬ readable-stream@1.1.14 </tspan>
<tspan x="10" y="698">  │ │     ├── isarray@0.0.1 </tspan>
<tspan x="10" y="714">  │ │     └── string_decoder@0.10.31 </tspan>
<tspan x="10" y="730">  │ ├── object-assign@3.0.0 </tspan>
<tspan x="10" y="746">  │ ├── replace-ext@0.0.1 </tspan>
<tspan x="10" y="762">  │ └─┬ vinyl@0.5.3 </tspan>
<tspan x="10" y="778">  │   ├── clone@1.0.2 </tspan>
<tspan x="10" y="794">  │   └── clone-stats@0.0.1 </tspan>
<tspan x="10" y="810">  ├─┬ inline-source@5.2.2 </tspan>
<tspan x="10" y="826">  │ ├─┬ csso@3.0.1 </tspan>
<tspan x="10" y="842">  │ │ └── css-tree@1.0.0-alpha17 </tspan>
<tspan x="10" y="858">  │ ├─┬ htmlparser2@3.9.2 </tspan>
<tspan x="10" y="874">  │ │ ├── domelementtype@1.3.0 </tspan>
<tspan x="10" y="890">  │ │ ├── domhandler@2.3.0 </tspan>
<tspan x="10" y="906">  │ │ ├─┬ domutils@1.5.1 </tspan>
<tspan x="10" y="922">  │ │ │ └─┬ dom-serializer@0.1.0 </tspan>
<tspan x="10" y="938">  │ │ │   └── domelementtype@1.1.3 </tspan>
<tspan x="10" y="954">  │ │ ├── entities@1.1.1 </tspan>
<tspan x="10" y="970">  │ │ ├── inherits@2.0.3 </tspan>
<tspan x="10" y="986">  │ │ └─┬ readable-stream@2.2.9 </tspan>
<tspan x="10" y="1002">  │ │   ├── isarray@1.0.0 </tspan>
<tspan x="10" y="1018">  │ │   └── string_decoder@1.0.0 </tspan>
<tspan x="10" y="1034">  │ ├── is-plain-obj@1.1.0 </tspan>
<tspan x="10" y="1050">  │ ├── object-assign@4.1.1 </tspan>
<tspan x="10" y="1066">  │ ├─┬ svgo@0.7.2 </tspan>
<tspan x="10" y="1082">  │ │ ├─┬ coa@1.0.1 </tspan>
<tspan x="10" y="1098">  │ │ │ └── q@1.5.0 </tspan>
<tspan x="10" y="1114">  │ │ ├── colors@1.1.2 </tspan>
<tspan x="10" y="1130">  │ │ ├─┬ csso@2.3.2 </tspan>
<tspan x="10" y="1146">  │ │ │ └── clap@1.1.3 </tspan>
<tspan x="10" y="1162">  │ │ ├─┬ js-yaml@3.7.0 </tspan>
<tspan x="10" y="1178">  │ │ │ ├─┬ argparse@1.0.9 </tspan>
<tspan x="10" y="1194">  │ │ │ │ └── sprintf-js@1.0.3 </tspan>
<tspan x="10" y="1210">  │ │ │ └── esprima@2.7.3 </tspan>
<tspan x="10" y="1226">  │ │ ├─┬ mkdirp@0.5.1 </tspan>
<tspan x="10" y="1242">  │ │ │ └── minimist@0.0.8 </tspan>
<tspan x="10" y="1258">  │ │ ├── sax@1.2.2 </tspan>
<tspan x="10" y="1274">  │ │ └── whet.extend@0.9.9 </tspan>
<tspan x="10" y="1290">  │ └─┬ uglify-js@2.8.22 </tspan>
<tspan x="10" y="1306">  │   ├── source-map@0.5.6 </tspan>
<tspan x="10" y="1322">  │   ├── uglify-to-browserify@1.0.2 </tspan>
<tspan x="10" y="1338">  │   └─┬ yargs@3.10.0 </tspan>
<tspan x="10" y="1354">  │     ├── camelcase@1.2.1 </tspan>
<tspan x="10" y="1370">  │     ├─┬ cliui@2.1.0 </tspan>
<tspan x="10" y="1386">  │     │ ├─┬ center-align@0.1.3 </tspan>
<tspan x="10" y="1402">  │     │ │ ├─┬ align-text@0.1.4 </tspan>
<tspan x="10" y="1418">  │     │ │ │ ├─┬ kind-of@3.2.0 </tspan>
<tspan x="10" y="1434">  │     │ │ │ │ └── is-buffer@1.1.5 </tspan>
<tspan x="10" y="1450">  │     │ │ │ ├── longest@1.0.1 </tspan>
<tspan x="10" y="1466">  │     │ │ │ └── repeat-string@1.6.1 </tspan>
<tspan x="10" y="1482">  │     │ │ └── lazy-cache@1.0.4 </tspan>
<tspan x="10" y="1498">  │     │ ├── right-align@0.1.3 </tspan>
<tspan x="10" y="1514">  │     │ └── wordwrap@0.0.2 </tspan>
<tspan x="10" y="1530">  │     ├── decamelize@1.2.0 </tspan>
<tspan x="10" y="1546">  │     └── window-size@0.1.0 </tspan>
<tspan x="10" y="1562">  └─┬ through2@2.0.3 </tspan>
<tspan x="10" y="1578">    ├─┬ readable-stream@2.2.9 </tspan>
<tspan x="10" y="1594">    │ ├── buffer-shims@1.0.0 </tspan>
<tspan x="10" y="1610">    │ ├── core-util-is@1.0.2 </tspan>
<tspan x="10" y="1626">    │ ├── isarray@1.0.0 </tspan>
<tspan x="10" y="1642">    │ ├── process-nextick-args@1.0.7 </tspan>
<tspan x="10" y="1658">    │ ├── string_decoder@1.0.0 </tspan>
<tspan x="10" y="1674">    │ └── util-deprecate@1.0.2 </tspan>
<tspan x="10" y="1690">    └── xtend@4.0.1</tspan>
</text>
</svg>
